<svg xmlns="http://www.w3.org/2000/svg" width="390" height="844" viewBox="0 0 390 844" font-family="-apple-system,'SF Pro Text',Helvetica,Arial,sans-serif">
  <rect width="390" height="844" fill="#0B0B0F"/>

  <text x="20" y="60" font-size="32" font-weight="700" fill="#F5F5F7" letter-spacing="-0.6">Search</text>
  <text x="20" y="90" font-size="15" fill="#9A9AA2">Lost the reel? Describe it instead.</text>

  <!-- field -->
  <rect x="20" y="116" width="350" height="52" rx="14" fill="#16161C" stroke="rgba(255,255,255,0.07)"/>
  <circle cx="44" cy="140" r="7" fill="none" stroke="#636369" stroke-width="1.7"/><path d="M49 145l5 5" stroke="#636369" stroke-width="1.7" stroke-linecap="round"/>
  <text x="66" y="145" font-size="14.5" fill="#636369">a lyric, a vibe, or that gym reel song</text>
  <rect x="336" y="132" width="12" height="16" rx="6" fill="none" stroke="#636369" stroke-width="1.6" opacity="0.5"/>

  <text x="22" y="196" font-size="13" fill="#636369">Hum to search is coming soon</text>

  <text x="22" y="232" font-size="12" font-weight="600" fill="#9A9AA2" letter-spacing="1">THREE WAYS TO SEARCH</text>

  <!-- row 1: lyric, drawn lines icon (not emoji) -->
  <rect x="20" y="252" width="38" height="38" rx="11" fill="#1F1F27"/>
  <path d="M30 266h18M30 271h18M30 276h11" stroke="#6B5FE0" stroke-width="1.8" stroke-linecap="round"/>
  <text x="70" y="270" font-size="16" font-weight="600" fill="#F5F5F7">A line you remember</text>
  <text x="70" y="288" font-size="13" fill="#9A9AA2">mmm whatcha say</text>
  <path d="M352 265l6 6-6 6" fill="none" stroke="#636369" stroke-width="1.8" stroke-linecap="round"/>
  <line x1="20" y1="310" x2="370" y2="310" stroke="rgba(255,255,255,0.07)"/>

  <!-- row 2: vibe, waveform icon -->
  <rect x="20" y="322" width="38" height="38" rx="11" fill="#1F1F27"/>
  <path d="M29 345c3 0 3-9 6-9s3 12 6 12 3-15 6-15 3 12 6 12" fill="none" stroke="#6B5FE0" stroke-width="1.8" stroke-linecap="round" stroke-linejoin="round"/>
  <text x="70" y="340" font-size="16" font-weight="600" fill="#F5F5F7">How it sounds or where it played</text>
  <text x="70" y="358" font-size="13" fill="#9A9AA2">slowed, female vocal, gym reel</text>
  <path d="M352 335l6 6-6 6" fill="none" stroke="#636369" stroke-width="1.8" stroke-linecap="round"/>
  <line x1="20" y1="380" x2="370" y2="380" stroke="rgba(255,255,255,0.07)"/>

  <!-- row 3: creator, person icon -->
  <rect x="20" y="392" width="38" height="38" rx="11" fill="#1F1F27"/>
  <circle cx="39" cy="407" r="4.5" fill="none" stroke="#6B5FE0" stroke-width="1.8"/>
  <path d="M31 421c1.5-4 4.5-5.5 8-5.5s6.5 1.5 8 5.5" fill="none" stroke="#6B5FE0" stroke-width="1.8" stroke-linecap="round"/>
  <text x="70" y="410" font-size="16" font-weight="600" fill="#F5F5F7">Who posts the edits</text>
  <text x="70" y="428" font-size="13" fill="#9A9AA2">edits by @fastmusic954</text>
  <path d="M352 405l6 6-6 6" fill="none" stroke="#636369" stroke-width="1.8" stroke-linecap="round"/>
</svg>
